<?xml version="1.0" encoding="utf-8"?>
<svg version="1.1" xmlns:xlink="http://www.w3.org/1999/xlink" width="16px" height="9px" xmlns="http://www.w3.org/2000/svg">
  <g transform="matrix(1 0 0 1 -211 -164 )">
    <path d="M 9.23958333333333 2.302734375  C 9.30208333333333 2.337890625  9.33333333333333 2.3828125  9.33333333333333 2.4375  L 9.33333333333333 5.0625  C 9.33333333333333 5.1171875  9.30208333333333 5.162109375  9.23958333333333 5.197265625  C 9.17708333333333 5.232421875  9.09722222222222 5.25  9 5.25  L 5.66666666666667 5.25  C 5.56944444444445 5.25  5.48958333333333 5.232421875  5.42708333333333 5.197265625  C 5.36458333333333 5.162109375  5.33333333333333 5.1171875  5.33333333333333 5.0625  L 5.33333333333333 4.6875  C 5.33333333333333 4.6328125  5.36458333333333 4.587890625  5.42708333333333 4.552734375  C 5.48958333333333 4.517578125  5.56944444444445 4.5  5.66666666666667 4.5  L 8 4.5  L 8 2.4375  C 8 2.3828125  8.03125 2.337890625  8.09375 2.302734375  C 8.15625 2.267578125  8.23611111111111 2.25  8.33333333333333 2.25  L 9 2.25  C 9.09722222222222 2.25  9.17708333333333 2.267578125  9.23958333333333 2.302734375  Z M 12.90625 6.099609375  C 13.4131944444444 5.611328125  13.6666666666667 5.078125  13.6666666666667 4.5  C 13.6666666666667 3.921875  13.4131944444444 3.388671875  12.90625 2.900390625  C 12.3993055555556 2.412109375  11.7118055555556 2.025390625  10.84375 1.740234375  C 9.97569444444444 1.455078125  9.02777777777778 1.3125  8 1.3125  C 6.97222222222222 1.3125  6.02430555555556 1.455078125  5.15625 1.740234375  C 4.28819444444444 2.025390625  3.60069444444444 2.412109375  3.09375 2.900390625  C 2.58680555555556 3.388671875  2.33333333333333 3.921875  2.33333333333333 4.5  C 2.33333333333333 5.078125  2.58680555555556 5.611328125  3.09375 6.099609375  C 3.60069444444444 6.587890625  4.28819444444444 6.974609375  5.15625 7.259765625  C 6.02430555555556 7.544921875  6.97222222222222 7.6875  8 7.6875  C 9.02777777777778 7.6875  9.97569444444444 7.544921875  10.84375 7.259765625  C 11.7118055555556 6.974609375  12.3993055555556 6.587890625  12.90625 6.099609375  Z M 14.9270833333333 2.2412109375  C 15.6423611111111 2.9306640625  16 3.68359375  16 4.5  C 16 5.31640625  15.6423611111111 6.0693359375  14.9270833333333 6.7587890625  C 14.2118055555556 7.4482421875  13.2413194444444 7.994140625  12.015625 8.396484375  C 10.7899305555556 8.798828125  9.45138888888889 9  8 9  C 6.54861111111111 9  5.21006944444444 8.798828125  3.984375 8.396484375  C 2.75868055555556 7.994140625  1.78819444444444 7.4482421875  1.07291666666667 6.7587890625  C 0.357638888888889 6.0693359375  0 5.31640625  0 4.5  C 0 3.68359375  0.357638888888889 2.9306640625  1.07291666666667 2.2412109375  C 1.78819444444444 1.5517578125  2.75868055555556 1.005859375  3.984375 0.603515625  C 5.21006944444444 0.201171874999999  6.54861111111111 0  8 0  C 9.45138888888889 0  10.7899305555556 0.201171874999999  12.015625 0.603515625  C 13.2413194444444 1.005859375  14.2118055555556 1.5517578125  14.9270833333333 2.2412109375  Z " fill-rule="nonzero" fill="#8c8c8c" stroke="none" transform="matrix(1 0 0 1 211 164 )" />
  </g>
</svg>