<?xml version="1.0" encoding="utf-8"?>
<svg version="1.1" xmlns:xlink="http://www.w3.org/1999/xlink" width="10px" height="7px" xmlns="http://www.w3.org/2000/svg">
  <g transform="matrix(1 0 0 1 -126 -19 )">
    <path d="M 5.77473958333333 1.791015625  C 5.81380208333333 1.818359375  5.83333333333333 1.85329861111111  5.83333333333333 1.89583333333333  L 5.83333333333333 3.9375  C 5.83333333333333 3.98003472222222  5.81380208333333 4.01497395833333  5.77473958333333 4.04231770833333  C 5.73567708333333 4.06966145833333  5.68576388888889 4.08333333333333  5.625 4.08333333333333  L 3.54166666666667 4.08333333333333  C 3.48090277777778 4.08333333333333  3.43098958333333 4.06966145833333  3.39192708333333 4.04231770833333  C 3.35286458333333 4.01497395833333  3.33333333333333 3.98003472222222  3.33333333333333 3.9375  L 3.33333333333333 3.64583333333333  C 3.33333333333333 3.60329861111111  3.35286458333333 3.568359375  3.39192708333333 3.541015625  C 3.43098958333333 3.513671875  3.48090277777778 3.5  3.54166666666667 3.5  L 5 3.5  L 5 1.89583333333333  C 5 1.85329861111111  5.01953125 1.818359375  5.05859375 1.791015625  C 5.09765625 1.763671875  5.14756944444445 1.75  5.20833333333333 1.75  L 5.625 1.75  C 5.68576388888889 1.75  5.73567708333333 1.763671875  5.77473958333333 1.791015625  Z M 8.06640625 4.744140625  C 8.38324652777778 4.36436631944444  8.54166666666667 3.94965277777778  8.54166666666667 3.5  C 8.54166666666667 3.05034722222222  8.38324652777778 2.63563368055556  8.06640625 2.255859375  C 7.74956597222222 1.87608506944444  7.31987847222222 1.57530381944444  6.77734375 1.353515625  C 6.23480902777778 1.13172743055556  5.64236111111111 1.02083333333333  5 1.02083333333333  C 4.35763888888889 1.02083333333333  3.76519097222222 1.13172743055556  3.22265625 1.353515625  C 2.68012152777778 1.57530381944444  2.25043402777778 1.87608506944444  1.93359375 2.255859375  C 1.61675347222222 2.63563368055556  1.45833333333333 3.05034722222222  1.45833333333333 3.5  C 1.45833333333333 3.94965277777778  1.61675347222222 4.36436631944444  1.93359375 4.744140625  C 2.25043402777778 5.12391493055555  2.68012152777778 5.42469618055556  3.22265625 5.646484375  C 3.76519097222222 5.86827256944444  4.35763888888889 5.97916666666667  5 5.97916666666667  C 5.64236111111111 5.97916666666667  6.23480902777778 5.86827256944444  6.77734375 5.646484375  C 7.31987847222222 5.42469618055556  7.74956597222222 5.12391493055555  8.06640625 4.744140625  Z M 9.32942708333333 1.7431640625  C 9.77647569444444 2.27940538194444  10 2.86501736111111  10 3.5  C 10 4.13498263888889  9.77647569444444 4.72059461805555  9.32942708333333 5.2568359375  C 8.88237847222222 5.79307725694444  8.27582465277778 6.21766493055556  7.509765625 6.53059895833333  C 6.74370659722222 6.84353298611111  5.90711805555556 7  5 7  C 4.09288194444444 7  3.25629340277778 6.84353298611111  2.490234375 6.53059895833333  C 1.72417534722222 6.21766493055556  1.11762152777778 5.79307725694444  0.670572916666667 5.2568359375  C 0.223524305555556 4.72059461805555  0 4.13498263888889  0 3.5  C 0 2.86501736111111  0.223524305555556 2.27940538194444  0.670572916666667 1.7431640625  C 1.11762152777778 1.20692274305556  1.72417534722222 0.782335069444444  2.490234375 0.469401041666666  C 3.25629340277778 0.156467013888888  4.09288194444444 0  5 0  C 5.90711805555556 0  6.74370659722222 0.156467013888888  7.509765625 0.469401041666666  C 8.27582465277778 0.782335069444444  8.88237847222222 1.20692274305556  9.32942708333333 1.7431640625  Z " fill-rule="nonzero" fill="#8c8c8c" stroke="none" transform="matrix(1 0 0 1 126 19 )" />
  </g>
</svg>