<?xml version="1.0" encoding="utf-8"?>
<svg version="1.1" xmlns:xlink="http://www.w3.org/1999/xlink" width="11px" height="7px" xmlns="http://www.w3.org/2000/svg">
  <g transform="matrix(1 0 0 1 -254 -20 )">
    <path d="M 6.35221354166667 1.791015625  C 6.39518229166667 1.818359375  6.41666666666667 1.85329861111111  6.41666666666667 1.89583333333333  L 6.41666666666667 3.9375  C 6.41666666666667 3.98003472222222  6.39518229166667 4.01497395833333  6.35221354166667 4.04231770833333  C 6.30924479166667 4.06966145833333  6.25434027777778 4.08333333333333  6.1875 4.08333333333333  L 3.89583333333333 4.08333333333333  C 3.82899305555556 4.08333333333333  3.77408854166667 4.06966145833333  3.73111979166667 4.04231770833333  C 3.68815104166667 4.01497395833333  3.66666666666667 3.98003472222222  3.66666666666667 3.9375  L 3.66666666666667 3.64583333333333  C 3.66666666666667 3.60329861111111  3.68815104166667 3.568359375  3.73111979166667 3.541015625  C 3.77408854166667 3.513671875  3.82899305555556 3.5  3.89583333333333 3.5  L 5.5 3.5  L 5.5 1.89583333333333  C 5.5 1.85329861111111  5.521484375 1.818359375  5.564453125 1.791015625  C 5.607421875 1.763671875  5.66232638888889 1.75  5.72916666666667 1.75  L 6.1875 1.75  C 6.25434027777778 1.75  6.30924479166667 1.763671875  6.35221354166667 1.791015625  Z M 8.873046875 4.744140625  C 9.22157118055556 4.36436631944444  9.39583333333333 3.94965277777778  9.39583333333333 3.5  C 9.39583333333333 3.05034722222222  9.22157118055556 2.63563368055556  8.873046875 2.255859375  C 8.52452256944445 1.87608506944444  8.05186631944445 1.57530381944444  7.455078125 1.353515625  C 6.85828993055556 1.13172743055556  6.20659722222222 1.02083333333333  5.5 1.02083333333333  C 4.79340277777778 1.02083333333333  4.14171006944444 1.13172743055556  3.544921875 1.353515625  C 2.94813368055556 1.57530381944444  2.47547743055556 1.87608506944444  2.126953125 2.255859375  C 1.77842881944444 2.63563368055556  1.60416666666667 3.05034722222222  1.60416666666667 3.5  C 1.60416666666667 3.94965277777778  1.77842881944444 4.36436631944444  2.126953125 4.744140625  C 2.47547743055556 5.12391493055555  2.94813368055556 5.42469618055556  3.544921875 5.646484375  C 4.14171006944444 5.86827256944444  4.79340277777778 5.97916666666667  5.5 5.97916666666667  C 6.20659722222222 5.97916666666667  6.85828993055556 5.86827256944444  7.455078125 5.646484375  C 8.05186631944445 5.42469618055556  8.52452256944445 5.12391493055555  8.873046875 4.744140625  Z M 10.2623697916667 1.7431640625  C 10.7541232638889 2.27940538194444  11 2.86501736111111  11 3.5  C 11 4.13498263888889  10.7541232638889 4.72059461805555  10.2623697916667 5.2568359375  C 9.77061631944445 5.79307725694444  9.10340711805556 6.21766493055556  8.2607421875 6.53059895833333  C 7.41807725694445 6.84353298611111  6.49782986111111 7  5.5 7  C 4.50217013888889 7  3.58192274305556 6.84353298611111  2.7392578125 6.53059895833333  C 1.89659288194444 6.21766493055556  1.22938368055556 5.79307725694444  0.737630208333333 5.2568359375  C 0.245876736111111 4.72059461805555  0 4.13498263888889  0 3.5  C 0 2.86501736111111  0.245876736111111 2.27940538194444  0.737630208333333 1.7431640625  C 1.22938368055556 1.20692274305556  1.89659288194444 0.782335069444444  2.7392578125 0.469401041666666  C 3.58192274305556 0.156467013888888  4.50217013888889 0  5.5 0  C 6.49782986111111 0  7.41807725694445 0.156467013888888  8.2607421875 0.469401041666666  C 9.10340711805556 0.782335069444444  9.77061631944445 1.20692274305556  10.2623697916667 1.7431640625  Z " fill-rule="nonzero" fill="#8c8c8c" stroke="none" transform="matrix(1 0 0 1 254 20 )" />
  </g>
</svg>