<?xml version="1.0" encoding="utf-8"?>
<svg version="1.1" xmlns:xlink="http://www.w3.org/1999/xlink" width="23px" height="16px" xmlns="http://www.w3.org/2000/svg">
  <g transform="matrix(1 0 0 1 -15 -15 )">
    <path d="M 21.1700633193005 15.9262551358025  C 25.5767414917962 15.9262551358025  21.0005756886874 0.0816460740740728  16.0289387888601 0.0816460987654325  C 12.6956822107081 1.71105624691358  10.4923431368739 1.54249656790124  7.04609478842832 0.0816460987654325  C 1.00103626943005 0.0816460987654325  -2.44521205418826 15.9824417037037  2.07445788860103 15.9824417037037  C 5.91617733376511 15.9824417037037  6.4246402007772 11.3189574814815  11.6222605915371 11.3189574814815  C 15.859451158247 11.3189574814815  18.3452696081606 15.9262551604938  21.1700633193005 15.9262551358025  Z M 10.3228555062608 5.58792866666667  C 10.3228555062608 7.21733881481482  8.96695453583765 8.50962962962963  7.38507004965457 8.50962962962963  C 5.74668970315198 8.50962962962963  4.44728459304836 7.21733881481482  4.44728459304836 5.58792866666667  C 4.44728459304836 3.95851851851852  5.74668970315198 2.66622770370371  7.38507004965457 2.66622770370371  C 9.02345039615716 2.66622770370371  10.3228555062608 3.95851851851852  10.3228555062608 5.58792866666667  Z M 15.1250048003022 5.25080933333333  C 15.0120130548359 5.6441152345679  14.5600460481433 5.86886145679012  14.1080790662781 5.75648834567901  C 13.6561120844128 5.6441152345679  13.4301285686528 5.1946227654321  13.599616199266 4.74513032098766  C 13.7126079447323 4.35182441975309  14.1645749514249 4.07089162962963  14.6165419332902 4.23945130864198  C 15.0685089151554 4.35182441975309  15.2944924309154 4.80131688888889  15.1250048003022 5.25080933333333  Z M 15.5769717821675 5.98123456790124  C 15.9724429037133 6.14979424691358  16.2549222797927 6.59928669135802  16.0854346491796 6.99259259259259  C 15.9724429037133 7.38589849382716  15.5204758970207 7.66683128395062  15.0685089151554 7.49827160493827  C 14.6165419332902 7.38589849382716  14.3905584175302 6.93640602469136  14.5600460481433 6.48691358024691  C 14.6730377936097 6.09360767901234  15.1250048003022 5.81267488888889  15.5769717821675 5.98123456790124  Z M 17.2153521286701 4.57657064197531  C 17.045864498057 4.96987654320988  16.5938975161917 5.1946227654321  16.1984263946459 5.08224965432099  C 15.7464594127807 4.96987654320988  15.5204758970207 4.52038407407407  15.6899635276338 4.07089162962963  C 15.8029552731002 3.67758572839506  16.2549222797927 3.3966529382716  16.706889261658 3.56521261728395  C 17.1588562435233 3.67758572839506  17.3848397592832 4.12707819753087  17.2153521286701 4.57657064197531  Z M 17.7238149956822 5.41936898765432  C 18.119286117228 5.53174209876543  18.3452696081606 5.98123456790124  18.2322778626943 6.43072701234568  C 18.119286117228 6.82403291358025  17.6673191105354 7.1049657037037  17.2153521286701 6.93640602469136  C 16.7633851468048 6.82403291358025  16.5374016310449 6.37454044444444  16.706889261658 5.925048  C 16.8198810071243 5.53174209876543  17.2718480138169 5.25080930864197  17.7238149956822 5.41936898765432  Z " fill-rule="nonzero" fill="#ffffff" stroke="none" transform="matrix(1 0 0 1 15 15 )" />
  </g>
</svg>