<?xml version="1.0" encoding="utf-8"?>
<svg version="1.1" xmlns:xlink="http://www.w3.org/1999/xlink" width="12px" height="12px" viewBox="379 132  12 12" xmlns="http://www.w3.org/2000/svg">
  <path d="M 385 132  C 388.36 132  391 134.64  391 138  C 391 141.36  388.36 144  385 144  C 381.64 144  379 141.36  379 138  C 379 134.64  381.64 132  385 132  Z " fill-rule="nonzero" fill="#ffffff" stroke="none" />
  <path d="M 385 132.5  C 388.08 132.5  390.5 134.92  390.5 138  C 390.5 141.08  388.08 143.5  385 143.5  C 381.92 143.5  379.5 141.08  379.5 138  C 379.5 134.92  381.92 132.5  385 132.5  Z " stroke-width="1" stroke="#797979" fill="none" />
  <path d="M 385 141  C 383.32 141  382 139.68  382 138  C 382 136.32  383.32 135  385 135  C 386.68 135  388 136.32  388 138  C 388 139.68  386.68 141  385 141  " fill-rule="nonzero" fill="#797979" stroke="none" />
</svg>