<?xml version="1.0" encoding="utf-8"?>
<svg version="1.1" xmlns:xlink="http://www.w3.org/1999/xlink" width="12px" height="12px" viewBox="261 132  12 12" xmlns="http://www.w3.org/2000/svg">
  <path d="M 267 132  C 270.36 132  273 134.64  273 138  C 273 141.36  270.36 144  267 144  C 263.64 144  261 141.36  261 138  C 261 134.64  263.64 132  267 132  Z " fill-rule="nonzero" fill="#f0f0f0" stroke="none" />
  <path d="M 267 132.5  C 270.08 132.5  272.5 134.92  272.5 138  C 272.5 141.08  270.08 143.5  267 143.5  C 263.92 143.5  261.5 141.08  261.5 138  C 261.5 134.92  263.92 132.5  267 132.5  Z " stroke-width="1" stroke="#797979" fill="none" />
  <path d="M 267 141  C 265.32 141  264 139.68  264 138  C 264 136.32  265.32 135  267 135  C 268.68 135  270 136.32  270 138  C 270 139.68  268.68 141  267 141  " fill-rule="nonzero" fill="#797979" stroke="none" />
</svg>