<?xml version="1.0" encoding="utf-8"?>
<svg version="1.1" xmlns:xlink="http://www.w3.org/1999/xlink" width="12px" height="12px" viewBox="365 132  12 12" xmlns="http://www.w3.org/2000/svg">
  <path d="M 371 132  C 374.36 132  377 134.64  377 138  C 377 141.36  374.36 144  371 144  C 367.64 144  365 141.36  365 138  C 365 134.64  367.64 132  371 132  Z " fill-rule="nonzero" fill="#f0f0f0" stroke="none" />
  <path d="M 371 132.5  C 374.08 132.5  376.5 134.92  376.5 138  C 376.5 141.08  374.08 143.5  371 143.5  C 367.92 143.5  365.5 141.08  365.5 138  C 365.5 134.92  367.92 132.5  371 132.5  Z " stroke-width="1" stroke="#797979" fill="none" />
  <path d="M 371 141  C 369.32 141  368 139.68  368 138  C 368 136.32  369.32 135  371 135  C 372.68 135  374 136.32  374 138  C 374 139.68  372.68 141  371 141  " fill-rule="nonzero" fill="#797979" stroke="none" />
</svg>