<?xml version="1.0" encoding="utf-8"?>
<svg version="1.1" xmlns:xlink="http://www.w3.org/1999/xlink" width="12px" height="12px" viewBox="485 132  12 12" xmlns="http://www.w3.org/2000/svg">
  <path d="M 491 132  C 494.36 132  497 134.64  497 138  C 497 141.36  494.36 144  491 144  C 487.64 144  485 141.36  485 138  C 485 134.64  487.64 132  491 132  Z " fill-rule="nonzero" fill="#f0f0f0" stroke="none" />
  <path d="M 491 132.5  C 494.08 132.5  496.5 134.92  496.5 138  C 496.5 141.08  494.08 143.5  491 143.5  C 487.92 143.5  485.5 141.08  485.5 138  C 485.5 134.92  487.92 132.5  491 132.5  Z " stroke-width="1" stroke="#797979" fill="none" />
  <path d="M 491 141  C 489.32 141  488 139.68  488 138  C 488 136.32  489.32 135  491 135  C 492.68 135  494 136.32  494 138  C 494 139.68  492.68 141  491 141  " fill-rule="nonzero" fill="#797979" stroke="none" />
</svg>