<?xml version="1.0" encoding="utf-8"?>
<svg version="1.1" xmlns:xlink="http://www.w3.org/1999/xlink" width="5px" height="5px" xmlns="http://www.w3.org/2000/svg">
  <g transform="matrix(1 0 0 1 -27 -41 )">
    <path d="M 3.84265734265734 2.5  L 4.77272727272727 3.00130208333333  C 4.87995337995338 3.05772569444444  4.9493006993007 3.14181857638889  4.98076923076923 3.25358072916667  C 5.01223776223776 3.36534288194444  4.997668997669 3.47113715277778  4.93706293706294 3.57096354166667  L 4.71328671328671 3.92903645833333  C 4.65268065268065 4.02886284722222  4.56235431235431 4.09342447916667  4.44230769230769 4.12272135416667  C 4.32226107226107 4.15201822916667  4.20862470862471 4.13845486111111  4.1013986013986 4.08203125  L 3.17132867132867 3.583984375  L 3.17132867132867 4.58333333333333  C 3.17132867132867 4.69618055555556  3.12703962703963 4.79383680555556  3.03846153846154 4.87630208333333  C 2.94988344988345 4.95876736111111  2.84498834498835 5  2.72377622377622 5  L 2.27622377622378 5  C 2.15501165501166 5  2.05011655011655 4.95876736111111  1.96153846153846 4.87630208333333  C 1.87296037296037 4.79383680555556  1.82867132867133 4.69618055555556  1.82867132867133 4.58333333333333  L 1.82867132867133 3.583984375  L 0.898601398601399 4.08203125  C 0.791375291375292 4.13845486111111  0.677738927738928 4.15201822916667  0.557692307692308 4.12272135416667  C 0.437645687645688 4.09342447916667  0.347319347319347 4.02886284722222  0.286713286713287 3.92903645833333  L 0.0629370629370629 3.57096354166667  C 0.00233100233100235 3.47113715277778  -0.0122377622377622 3.36534288194444  0.0192307692307692 3.25358072916667  C 0.0506993006993007 3.14181857638889  0.12004662004662 3.05772569444444  0.227272727272727 3.00130208333333  L 1.15734265734266 2.5  L 0.227272727272727 1.99869791666667  C 0.12004662004662 1.94227430555556  0.0506993006993007 1.85818142361111  0.0192307692307692 1.74641927083333  C -0.0122377622377622 1.63465711805556  0.00233100233100235 1.52886284722222  0.0629370629370629 1.42903645833333  L 0.286713286713287 1.07096354166667  C 0.347319347319347 0.971137152777777  0.437645687645688 0.906575520833333  0.557692307692308 0.877278645833333  C 0.677738927738928 0.847981770833333  0.791375291375292 0.861545138888888  0.898601398601399 0.91796875  L 1.82867132867133 1.416015625  L 1.82867132867133 0.416666666666667  C 1.82867132867133 0.303819444444444  1.87296037296037 0.206163194444444  1.96153846153846 0.123697916666667  C 2.05011655011655 0.0412326388888884  2.15501165501166 0  2.27622377622378 0  L 2.72377622377622 0  C 2.84498834498835 0  2.94988344988345 0.0412326388888884  3.03846153846154 0.123697916666667  C 3.12703962703963 0.206163194444444  3.17132867132867 0.303819444444444  3.17132867132867 0.416666666666667  L 3.17132867132867 1.416015625  L 4.1013986013986 0.91796875  C 4.20862470862471 0.861545138888888  4.32226107226107 0.847981770833333  4.44230769230769 0.877278645833333  C 4.56235431235431 0.906575520833333  4.65268065268065 0.971137152777777  4.71328671328671 1.07096354166667  L 4.93706293706294 1.42903645833333  C 4.997668997669 1.52886284722222  5.01223776223776 1.63465711805556  4.98076923076923 1.74641927083333  C 4.9493006993007 1.85818142361111  4.87995337995338 1.94227430555556  4.77272727272727 1.99869791666667  L 3.84265734265734 2.5  Z " fill-rule="nonzero" fill="#d9001b" stroke="none" transform="matrix(1 0 0 1 27 41 )" />
  </g>
</svg>