<?xml version="1.0" encoding="utf-8"?>
<svg version="1.1" xmlns:xlink="http://www.w3.org/1999/xlink" width="12px" height="12px" viewBox="201 139  12 12" xmlns="http://www.w3.org/2000/svg">
  <path d="M 207 139  C 210.36 139  213 141.64  213 145  C 213 148.36  210.36 151  207 151  C 203.64 151  201 148.36  201 145  C 201 141.64  203.64 139  207 139  Z " fill-rule="nonzero" fill="#ffffff" stroke="none" />
  <path d="M 207 139.5  C 210.08 139.5  212.5 141.92  212.5 145  C 212.5 148.08  210.08 150.5  207 150.5  C 203.92 150.5  201.5 148.08  201.5 145  C 201.5 141.92  203.92 139.5  207 139.5  Z " stroke-width="1" stroke="#797979" fill="none" />
  <path d="M 207 148  C 205.32 148  204 146.68  204 145  C 204 143.32  205.32 142  207 142  C 208.68 142  210 143.32  210 145  C 210 146.68  208.68 148  207 148  " fill-rule="nonzero" fill="#797979" stroke="none" />
</svg>