<?xml version="1.0" encoding="utf-8"?>
<svg version="1.1" xmlns:xlink="http://www.w3.org/1999/xlink" width="15px" height="16px" xmlns="http://www.w3.org/2000/svg">
  <g transform="matrix(1 0 0 1 -978 -182 )">
    <path d="M 2.98969884072581 7.56349206349206  L 2.97788558467742 7.56349206349206  C 2.9377205141129 7.56349206349206  2.90464339717742 7.56845238095238  2.88101688508065 7.58085317460317  C 2.91645665322581 7.57093253968254  2.95189642137097 7.56349206349206  2.98969884072581 7.56349206349206  Z M 14.2004788306452 12.1889880952381  C 14.1981161794355 12.2013888888889  14.1957535282258 12.2212301587302  14.1933908770161 12.2534722222222  C 14.1933908770161 12.2311507936508  14.1981161794355 12.2113095238095  14.2004788306452 12.1889880952381  Z M 14.9423513104839 3.57539682539683  L 14.9423513104839 3.58779761904762  L 14.9423513104839 3.57539682539683  Z M 14.1933908770161 3.57539682539683  L 14.1933908770161 3.58779761904762  L 14.1933908770161 3.57539682539683  Z M 14.6446572580645 15.4355158730159  C 14.6493825604839 15.4181547619048  14.6493825604839 15.3958333333333  14.6446572580645 15.3735119047619  C 14.5407006048387 14.5525793650794  14.3091607862903 13.7539682539683  13.9594884072581 13.0099206349206  C 13.8909715221774 12.8635912698413  13.8200919858871 12.7222222222222  13.7421244959677 12.5808531746032  L 13.7421244959677 12.578373015873  C 13.4066280241935 11.9831349206349  12.9978893649194 11.4350198412698  12.5277217741935 10.9513888888889  C 12.4237651209677 10.8447420634921  12.3174458165323 10.7405753968254  12.2087638608871 10.641369047619  C 11.4267263104839 9.92212301587302  10.5265561995968 9.39136904761905  9.56495715725806 9.06646825396825  C 9.73979334677419 8.96478174603175  9.90754158266129 8.85069444444444  10.0682018649194 8.72668650793651  C 10.2548513104839 8.5828373015873  10.4296875 8.42410714285714  10.5927104334677 8.25297619047619  C 11.4598034274194 7.34275793650794  11.9370589717742 6.13244047619047  11.9370589717742 4.84523809523809  C 11.9370589717742 3.55803571428571  11.4598034274194 2.34771825396825  10.5927104334677 1.43998015873016  C 9.74215599798387 0.547123015873014  8.61517137096774 0.0486111111111102  7.41494455645161 0.0287698412698395  L 7.3015372983871 0.0287698412698395  C 6.10131048387097 0.0461309523809506  4.97432585685484 0.547123015873014  4.12377142137097 1.43998015873016  C 3.25667842741935 2.35019841269841  2.77942288306452 3.56051587301587  2.77942288306452 4.84523809523809  C 2.77942288306452 6.13244047619047  3.25667842741935 7.34275793650794  4.12377142137097 8.25297619047619  C 4.28679435483871 8.42410714285714  4.46163054435484 8.5828373015873  4.64827998991935 8.72668650793651  C 4.80894027217742 8.85069444444444  4.97668850806451 8.96478174603175  5.15152469758065 9.06646825396825  C 4.18992565524194 9.39136904761905  3.28739289314516 9.92212301587302  2.50771799395161 10.641369047619  C 2.39903603830645 10.7405753968254  2.29271673387097 10.8447420634921  2.18876008064516 10.9513888888889  C 1.71859248991935 11.4375  1.30985383064516 11.9831349206349  0.971994707661288 12.5808531746032  C 0.896389868951611 12.7222222222222  0.823147681451611 12.8635912698413  0.754630796370966 13.0099206349206  C 0.404958417338708 13.7539682539683  0.175781249999998 14.5500992063492  0.0694619455645144 15.3735119047619  C 0.0363848286290305 15.6364087301587  0.21122101814516 15.8794642857143  0.464024697580643 15.9141865079365  C 0.501827116935482 15.9191468253968  0.541992187499998 15.9191468253968  0.582157258064514 15.9141865079365  C 0.76880670362903 15.8720238095238  0.910565776209676 15.7108134920635  0.938917590725805 15.5124007936508  C 1.15155619959677 13.9895833333333  1.84145035282258 12.6031746031746  2.83612651209677 11.5491071428571  C 4.01745211693548 10.296626984127  5.62169228830645 9.51041666666666  7.35824092741935 9.50793650793651  L 7.36769153225806 9.50793650793651  C 9.09951486895161 9.51289682539683  10.7013923891129 10.2991071428571  11.8803553427419 11.5491071428571  C 12.8750315020161 12.6031746031746  13.5672883064516 13.9871031746032  13.7775642641129 15.5124007936508  C 13.805916078629 15.7108134920635  13.9476751512097 15.8695436507936  14.1319619455645 15.9141865079365  C 14.1508631552419 15.9166666666667  14.1674017137097 15.9166666666667  14.1863029233871 15.9166666666667  C 14.4391066028226 15.9166666666667  14.6446572580645 15.7008928571429  14.6446572580645 15.4355158730159  Z M 7.39604334677419 8.70188492063492  L 7.34879032258065 8.70188492063492  L 7.32043850806452 8.70188492063492  C 5.60751638104839 8.68948412698412  4.08124369959677 7.43948412698413  3.66305443548387 5.76289682539682  C 3.58744959677419 5.46527777777778  3.54964717741935 5.15525793650794  3.54964717741935 4.84771825396825  C 3.54964717741935 4.53521825396825  3.58744959677419 4.22519841269841  3.66305443548387 3.92261904761905  C 4.08360635080645 2.20386904761905  5.62405493951613 0.839781746031745  7.34879032258065 0.839781746031745  L 7.36769153225806 0.839781746031745  C 9.09242691532258 0.839781746031745  10.6328755040323 2.20634920634921  11.0534274193548 3.92261904761905  C 11.1290322580645 4.22519841269841  11.1668346774194 4.53521825396825  11.1668346774194 4.84771825396825  C 11.1668346774194 5.15773809523809  11.1290322580645 5.46527777777778  11.0534274193548 5.76289682539682  C 10.6352381552419 7.43948412698413  9.10896547379032 8.68700396825397  7.39604334677419 8.70188492063492  Z " fill-rule="nonzero" fill="#b6bece" stroke="none" transform="matrix(1 0 0 1 978 182 )" />
  </g>
</svg>