<?xml version="1.0" encoding="utf-8"?>
<svg version="1.1" xmlns:xlink="http://www.w3.org/1999/xlink" width="12px" height="11px" xmlns="http://www.w3.org/2000/svg">
  <g transform="matrix(1 0 0 1 -227 -187 )">
    <path d="M 6.03296703296703 7.14303797468354  C 6.03296703296703 7.46329113924051  5.80989010559753 7.72320675558742  5.53516483516484 7.72320675558742  L 0.587912083619506 7.72320675558742  C 0.312087903502747 7.72320675558742  0.089010989010989 7.46329113924051  0.089010989010989 7.14303797468354  C 0.089010989010989 6.82278481012658  0.312087916380494 6.56286919377967  0.587912083619506 6.56286919377967  L 5.53406593835852 6.56286919377967  C 5.80989011847528 6.56286919377967  6.03296703296703 6.82278481012658  6.03296703296703 7.14303797468354  Z M 6.03296703296703 3.86624473027097  C 6.03296703296703 4.18649789482793  5.80989010559753 4.44641351117484  5.53516483516484 4.44641349757714  L 0.587912083619506 4.44641349757714  C 0.312087903502747 4.44641349757714  0.089010989010989 4.18649788123022  0.089010989010989 3.86624473027097  C 0.089010989010989 3.54599157931171  0.312087916380494 3.28607594936709  0.587912083619506 3.28607594936709  L 5.53406593835852 3.28607594936709  C 5.80989011847528 3.28607594936709  6.03296703296703 3.545991565714  6.03296703296703 3.86624473027097  Z M 12 0.59061181887856  C 12 0.910864983435522  11.7769230726305 1.17078059978244  11.5010989053915 1.17078058618473  L 0.559340663633242 1.17078058618473  C 0.283516483516484 1.17078058618473  0.0604395690247253 0.910864969837817  0.0604395561469779 0.59061181887856  C 0.0604395432692307 0.270358667919304  0.283516483516484 0.0104430379746839  0.559340663633242 0  L 11.5010989053915 0  C 11.7769230855082 0.0104430379746839  12 0.270358654321598  12 0.59061181887856  Z M 11.9703296703297 10.4186708860759  C 11.9703296703297 10.7389240506329  11.7472527429602 10.9988396669798  11.4714285757212 11  L 0.529670333962912 11  C 0.253846153846154 10.9988396669798  0.0307692393543956 10.7389240506329  0.0307692264766483 10.4186708860759  C 0.0307692135989009 10.098417721519  0.253846153846154 9.83850210517208  0.529670333962912 9.83850210517208  L 11.4714285757212 9.83850210517208  C 11.7472527558379 9.83850210517208  11.9703296703297 10.098417721519  11.9703296703297 10.4186708860759  Z M 11.7395604395604 8.09451476339992  C 11.6593406636332 8.15601265822785  11.5659340616415 8.1873417721519  11.4714285757212 8.1873417721519  C 11.4 8.1873417721519  11.3285714371566 8.16993670886076  11.2615384615385 8.13396624925831  L 7.33076923506181 6.01751055305578  C 7.15384615384615 5.92236287826345  7.04175824175824 5.71698313142801  7.04175824175824 5.49071729504549  C 7.04175824175824 5.26445147226068  7.15494505065247 5.05907172542524  7.33076923506181 4.96392405063291  L 11.2615384615385 2.84746835443038  C 11.4164835164835 2.76392405063291  11.5967033009959 2.77784810126582  11.7395604395604 2.88459916065071  C 11.8835164878091 2.9913502200356  11.9703296703297 3.17584389092168  11.9703296703297 3.37310126582279  L 11.9703296703297 7.60601265822785  C 11.9703296703297 7.80443037974684  11.8835164878091 7.98776371761274  11.7395604395604 8.09451476339992  Z " fill-rule="nonzero" fill="#7f7f7f" stroke="none" transform="matrix(1 0 0 1 227 187 )" />
  </g>
</svg>