<?xml version="1.0" encoding="utf-8"?>
<svg version="1.1" xmlns:xlink="http://www.w3.org/1999/xlink" width="37px" height="40px" xmlns="http://www.w3.org/2000/svg">
  <defs>
    <filter x="860px" y="159px" width="37px" height="40px" filterUnits="userSpaceOnUse" id="filter85">
      <feOffset dx="1" dy="1" in="SourceAlpha" result="shadowOffsetInner" />
      <feGaussianBlur stdDeviation="2.5" in="shadowOffsetInner" result="shadowGaussian" />
      <feComposite in2="shadowGaussian" operator="atop" in="SourceAlpha" result="shadowComposite" />
      <feColorMatrix type="matrix" values="0 0 0 0 0  0 0 0 0 0  0 0 0 0 0  0 0 0 0.698039215686274 0  " in="shadowComposite" />
    </filter>
    <g id="widget86">
      <path d="M 877.5 163  C 885.06 163  891 169.6  891 178  C 891 186.4  885.06 193  877.5 193  C 869.94 193  864 186.4  864 178  C 864 169.6  869.94 163  877.5 163  Z " fill-rule="nonzero" fill="#009dd9" stroke="none" />
      <path d="M 877.5 163.5  C 884.78 163.5  890.5 169.88  890.5 178  C 890.5 186.12  884.78 192.5  877.5 192.5  C 870.22 192.5  864.5 186.12  864.5 178  C 864.5 169.88  870.22 163.5  877.5 163.5  Z " stroke-width="1" stroke="#ffffff" fill="none" />
    </g>
  </defs>
  <g transform="matrix(1 0 0 1 -860 -159 )">
    <use xlink:href="#widget86" filter="url(#filter85)" />
    <use xlink:href="#widget86" />
  </g>
</svg>