<?xml version="1.0" encoding="utf-8"?>
<svg version="1.1" xmlns:xlink="http://www.w3.org/1999/xlink" width="193px" height="135px" xmlns="http://www.w3.org/2000/svg">
  <g transform="matrix(1 0 0 1 -399 -257 )">
    <path d="M 177.644444375 134.377777708333  C 214.622222083333 134.377777708333  176.222222083333 0.68888874999999  134.50370375 0.688888958333337  C 106.533333333333 14.4370370833333  88.0444445833333 13.0148147916667  59.1259258333333 0.688888958333337  C 8.39999999999999 0.688888958333337  -20.5185185416667 134.851851875  17.4074075 134.851851875  C 49.6444445833333 134.851851875  53.91111125 95.50370375  97.5259258333333 95.50370375  C 133.081481458333 95.50370375  153.940740625 134.377777916667  177.644444375 134.377777708333  Z M 86.6222222916666 47.148148125  C 86.6222222916666 60.89629625  75.2444445833333 71.8  61.9703704166666 71.8  C 48.2222222916666 71.8  37.3185185416666 60.89629625  37.3185185416666 47.148148125  C 37.3185185416666 33.4  48.2222222916667 22.49629625  61.9703704166666 22.49629625  C 75.7185185416666 22.49629625  86.6222222916666 33.4  86.6222222916666 47.148148125  Z M 126.918518541667 44.30370375  C 125.970370416667 47.6222222916667  122.177777708333 49.5185185416667  118.385185208333 48.5703704166667  C 114.592592708333 47.6222222916667  112.69629625 43.8296295833333  114.118518541667 40.0370370833333  C 115.066666666667 36.7185185416667  118.859259375 34.348148125  122.651851875 35.7703704166667  C 126.444444375 36.7185185416667  128.340740833333 40.51111125  126.918518541667 44.30370375  Z M 130.711111041667 50.4666666666667  C 134.029629583333 51.8888889583333  136.4 55.6814814583333  134.977777708333 59  C 134.029629583333 62.3185185416667  130.237036875 64.6888889583333  126.444444375 63.2666666666667  C 122.651851875 62.3185185416667  120.755555416667 58.5259258333333  122.177777708333 54.7333333333333  C 123.125925833333 51.4148147916667  126.918518541667 49.044444375  130.711111041667 50.4666666666667  Z M 144.459259166667 38.6148147916667  C 143.037036875 41.9333333333334  139.244444375 43.8296295833333  135.925925833333 42.8814814583333  C 132.133333333333 41.9333333333333  130.237036875 38.140740625  131.659259166667 34.348148125  C 132.607407291667 31.0296295833333  136.4 28.6592591666667  140.1925925 30.0814814583333  C 143.985185 31.0296295833333  145.881481458333 34.8222222916667  144.459259166667 38.6148147916667  Z M 148.725925833333 45.7259258333333  C 152.044444375 46.6740739583333  153.940740625 50.4666666666667  152.9925925 54.2592591666667  C 152.044444375 57.5777777083333  148.251851666667 59.948148125  144.459259166667 58.5259258333333  C 140.666666666667 57.5777777083333  138.770370208333 53.785185  140.1925925 49.9925925  C 141.140740625 46.6740739583333  144.933333333333 44.3037035416667  148.725925833333 45.7259258333333  Z " fill-rule="nonzero" fill="#000000" stroke="none" transform="matrix(1 0 0 1 399 257 )" />
  </g>
</svg>