<?xml version="1.0" encoding="utf-8"?>
<svg version="1.1" xmlns:xlink="http://www.w3.org/1999/xlink" width="124px" height="126px" xmlns="http://www.w3.org/2000/svg">
  <g transform="matrix(1 0 0 1 -178 -99 )">
    <path d="M 24.71484375 59.5625  L 24.6171875 59.5625  C 24.28515625 59.5625  24.01171875 59.6015625  23.81640625 59.69921875  C 24.109375 59.62109375  24.40234375 59.5625  24.71484375 59.5625  Z M 117.390625 95.98828125  C 117.37109375 96.0859375  117.3515625 96.2421875  117.33203125 96.49609375  C 117.33203125 96.3203125  117.37109375 96.1640625  117.390625 95.98828125  Z M 123.5234375 28.15625  L 123.5234375 28.25390625  L 123.5234375 28.15625  Z M 117.33203125 28.15625  L 117.33203125 28.25390625  L 117.33203125 28.15625  Z M 121.0625 121.5546875  C 121.1015625 121.41796875  121.1015625 121.2421875  121.0625 121.06640625  C 120.203125 114.6015625  118.2890625 108.3125  115.3984375 102.453125  C 114.83203125 101.30078125  114.24609375 100.1875  113.6015625 99.07421875  L 113.6015625 99.0546875  C 110.828125 94.3671875  107.44921875 90.05078125  103.5625 86.2421875  C 102.703125 85.40234375  101.82421875 84.58203125  100.92578125 83.80078125  C 94.4609375 78.13671875  87.01953125 73.95703125  79.0703125 71.3984375  C 80.515625 70.59765625  81.90234375 69.69921875  83.23046875 68.72265625  C 84.7734375 67.58984375  86.21875 66.33984375  87.56640625 64.9921875  C 94.734375 57.82421875  98.6796875 48.29296875  98.6796875 38.15625  C 98.6796875 28.01953125  94.734375 18.48828125  87.56640625 11.33984375  C 80.53515625 4.30859374999999  71.21875 0.382812499999993  61.296875 0.226562499999986  L 60.359375 0.226562499999986  C 50.4375 0.363281249999986  41.12109375 4.30859374999999  34.08984375 11.33984375  C 26.921875 18.5078125  22.9765625 28.0390625  22.9765625 38.15625  C 22.9765625 48.29296875  26.921875 57.82421875  34.08984375 64.9921875  C 35.4375 66.33984375  36.8828125 67.58984375  38.42578125 68.72265625  C 39.75390625 69.69921875  41.140625 70.59765625  42.5859375 71.3984375  C 34.63671875 73.95703125  27.17578125 78.13671875  20.73046875 83.80078125  C 19.83203125 84.58203125  18.953125 85.40234375  18.09375 86.2421875  C 14.20703125 90.0703125  10.828125 94.3671875  8.03515624999999 99.07421875  C 7.41015624999999 100.1875  6.80468749999999 101.30078125  6.23828124999999 102.453125  C 3.34765624999999 108.3125  1.45312499999999 114.58203125  0.574218749999986 121.06640625  C 0.300781249999986 123.13671875  1.74609374999999 125.05078125  3.83593749999999 125.32421875  C 4.14843749999999 125.36328125  4.48046874999999 125.36328125  4.81249999999999 125.32421875  C 6.35546874999999 124.9921875  7.52734374999999 123.72265625  7.76171874999999 122.16015625  C 9.51953124999999 110.16796875  15.22265625 99.25  23.4453125 90.94921875  C 33.2109375 81.0859375  46.47265625 74.89453125  60.828125 74.875  L 60.90625 74.875  C 75.22265625 74.9140625  88.46484375 81.10546875  98.2109375 90.94921875  C 106.43359375 99.25  112.15625 110.1484375  113.89453125 122.16015625  C 114.12890625 123.72265625  115.30078125 124.97265625  116.82421875 125.32421875  C 116.98046875 125.34375  117.1171875 125.34375  117.2734375 125.34375  C 119.36328125 125.34375  121.0625 123.64453125  121.0625 121.5546875  Z M 61.140625 68.52734375  L 60.75 68.52734375  L 60.515625 68.52734375  C 46.35546875 68.4296875  33.73828125 58.5859375  30.28125 45.3828125  C 29.65625 43.0390625  29.34375 40.59765625  29.34375 38.17578125  C 29.34375 35.71484375  29.65625 33.2734375  30.28125 30.890625  C 33.7578125 17.35546875  46.4921875 6.61328124999999  60.75 6.61328124999999  L 60.90625 6.61328124999999  C 75.1640625 6.61328124999999  87.8984375 17.375  91.375 30.890625  C 92 33.2734375  92.3125 35.71484375  92.3125 38.17578125  C 92.3125 40.6171875  92 43.0390625  91.375 45.3828125  C 87.91796875 58.5859375  75.30078125 68.41015625  61.140625 68.52734375  Z " fill-rule="nonzero" fill="#b6bece" stroke="none" transform="matrix(1 0 0 1 178 99 )" />
  </g>
</svg>