<?xml version="1.0" encoding="utf-8"?>
<svg version="1.1" xmlns:xlink="http://www.w3.org/1999/xlink" width="47px" height="41px" xmlns="http://www.w3.org/2000/svg">
  <g transform="matrix(1 0 0 1 -589 -86 )">
    <path d="M 23.6291208791209 26.6240506329114  C 23.6291208791209 27.8177215189873  22.7554029135903 28.7864979071895  21.6793956043956 28  L 2.30265566084306 28  C 1.22234428871909 28.7864979071895  0.348626373626374 27.8177215189873  0.348626373626374 26.6240506329114  C 0.348626373626374 25.4303797468354  1.22234433915694 24.4616033586333  2.30265566084306 24  L 21.6750915919042 24  C 22.7554029640282 24.4616033586333  23.6291208791209 25.4303797468354  23.6291208791209 26.6240506329114  Z M 23.6291208791209 14.4105485401009  C 23.6291208791209 15.6042194261768  22.7554029135903 16.572995814379  21.6793956043956 17  L 2.30265566084306 17  C 1.22234428871909 16.5729957636966  0.348626373626374 15.6042193754945  0.348626373626374 14.4105485401009  C 0.348626373626374 13.2168777047073  1.22234433915694 12.2481012658228  2.30265566084306 13  L 21.6750915919042 13  C 22.7554029640282 12.2481012658228  23.6291208791209 13.2168776540249  23.6291208791209 14.4105485401009  Z M 47 2.201371324911  C 47 3.39504221098695  46.1262820344694 4.36381859918908  45.0459707127833 5  L 2.19075093256353 5  C 1.11043956043956 4.36381854850672  0.236721645346841 3.39504216030459  0.236721594908997 2.201371324911  C 0.236721544471153 1.00770048951741  1.11043956043956 0.0389240506329129  2.19075093256353 0  L 45.0459707127833 0  C 46.1262820849073 0.0389240506329129  47 1.00770043883505  47 2.201371324911  Z M 46.8837912087912 38.8332278481013  C 46.8837912087912 40.0268987341772  46.0100732432606 40.9956751223794  44.9297619215745 41  L 2.07454214135474 41  C 0.994230769230769 40.9956751223794  0.120512854138049 40.0268987341772  0.120512803700206 38.8332278481013  C 0.120512753262362 37.6395569620253  0.994230769230769 36.6707805738232  2.07454214135474 36  L 44.9297619215745 36  C 46.0100732936985 36.6707805738232  46.8837912087912 37.6395569620253  46.8837912087912 38.8332278481013  Z M 45.979945054945 30.170464118127  C 45.6657509325635 30.3996835443038  45.2999084080958 30.5164556962025  44.9297619215745 30.5164556962025  C 44.65 30.5164556962025  44.3702381288633 30.451582278481  44.1076923076923 30.3175105654173  L 28.7121795039921 22.4289029704806  C 28.0192307692308 22.0742616371638  27.5802197802198 21.3087553080498  27.5802197802198 20.4654008269877  C 27.5802197802198 19.622046396608  28.0235347817222 18.8565400674941  28.7121795039921 18.5018987341772  L 44.1076923076923 10.6132911392405  C 44.7145604395604 10.3018987341772  45.4204212622339 10.3537974683544  45.979945054945 10.7516877806072  C 46.5437729105855 11.14957809286  46.8837912087912 11.8372363207081  46 12.5724683544304  L 46 28.3496835443038  C 46.8837912087912 29.0892405063291  46.5437729105855 29.7725738565566  45.979945054945 30.170464118127  Z " fill-rule="nonzero" fill="#040000" stroke="none" transform="matrix(1 0 0 1 589 86 )" />
  </g>
</svg>